<svg width="56" height="46" viewBox="0 0 56 46" fill="none" xmlns="http://www.w3.org/2000/svg">
<g id="icn resize .icn-xl" clip-path="url(#clip0_1579_2345)">
<path id="Vector" fill-rule="evenodd" clip-rule="evenodd" d="M11.2058 11.5251C11.2058 10.0134 11.804 8.56351 12.8689 7.49453C13.9337 6.42556 15.3779 5.82501 16.8839 5.82501H33.9181C35.424 5.82501 36.8683 6.42556 37.9331 7.49453C38.9979 8.56351 39.5962 10.0134 39.5962 11.5251V44.3007C39.596 44.5585 39.5263 44.8114 39.3943 45.0325C39.2623 45.2536 39.073 45.4346 38.8467 45.5563C38.6203 45.678 38.3653 45.7357 38.1088 45.7234C37.8523 45.7111 37.604 45.6292 37.3902 45.4863L25.401 37.4634L13.4117 45.4863C13.198 45.6292 12.9496 45.7111 12.6931 45.7234C12.4367 45.7357 12.1817 45.678 11.9553 45.5563C11.7289 45.4346 11.5397 45.2536 11.4077 45.0325C11.2757 44.8114 11.2059 44.5585 11.2058 44.3007V11.5251ZM16.8839 8.67507C16.1309 8.67507 15.4088 8.97534 14.8764 9.50983C14.3439 10.0443 14.0448 10.7692 14.0448 11.5251V41.6388L24.6146 34.5649C24.8475 34.4093 25.1211 34.3263 25.401 34.3263C25.6808 34.3263 25.9544 34.4093 26.1874 34.5649L36.7571 41.6388V11.5251C36.7571 10.7692 36.458 10.0443 35.9256 9.50983C35.3932 8.97534 34.6711 8.67507 33.9181 8.67507H16.8839Z" fill="#23A6F0"/>
<path id="Vector_2" fill-rule="evenodd" clip-rule="evenodd" d="M17.3442 3.2491H39.2906C40.0433 3.2491 40.7653 3.5436 41.2976 4.06781C41.8299 4.59202 42.1289 5.303 42.1289 6.04434V38.9388L42.7619 39.3525C42.9756 39.4925 43.2239 39.5729 43.4803 39.5849C43.7367 39.597 43.9917 39.5404 44.218 39.4211C44.4443 39.3017 44.6335 39.1242 44.7655 38.9073C44.8974 38.6905 44.9672 38.4425 44.9673 38.1896V6.04434C44.9673 4.56166 44.3692 3.13969 43.3046 2.09127C42.24 1.04285 40.7961 0.453857 39.2906 0.453857L22.2603 0.453857C21.2639 0.453882 20.285 0.71221 19.422 1.20288C18.5591 1.69354 17.8425 2.39926 17.3442 3.2491Z" fill="#23A6F0"/>
</g>
<defs>
<clipPath id="clip0_1579_2345">
<rect width="55.2462" height="45.4969" fill="white" transform="translate(0.0798187 0.453857)"/>
</clipPath>
</defs>
</svg>
