<svg width="56" height="46" viewBox="0 0 56 46" fill="none" xmlns="http://www.w3.org/2000/svg">
<g id="icn resize icn-xl" clip-path="url(#clip0_1579_2338)">
<path id="Vector" fill-rule="evenodd" clip-rule="evenodd" d="M3.05176e-05 7.68847C3.05176e-05 5.97323 0.68718 4.32825 1.91031 3.11539C3.13345 1.90254 4.79237 1.22116 6.52215 1.22116H50.5464C50.9789 1.22116 51.3936 1.3915 51.6994 1.69472C52.0052 1.99793 52.177 2.40918 52.177 2.83799C52.177 3.2668 52.0052 3.67804 51.6994 3.98126C51.3936 4.28447 50.9789 4.45481 50.5464 4.45481H48.9159V10.9221C49.7808 10.9221 50.6102 11.2628 51.2218 11.8692C51.8334 12.4757 52.177 13.2982 52.177 14.1558V41.6418C52.177 42.9283 51.6616 44.162 50.7442 45.0716C49.8269 45.9813 48.5827 46.4923 47.2854 46.4923H8.15267C5.99046 46.4923 3.9168 45.6406 2.38788 44.1245C0.858967 42.6085 3.05176e-05 40.5522 3.05176e-05 38.4082L3.05176e-05 7.68847ZM3.26109 13.2892V38.4082C3.26109 39.6946 3.77645 40.9283 4.6938 41.838C5.61115 42.7476 6.85535 43.2587 8.15267 43.2587H47.2854C47.7178 43.2587 48.1325 43.0883 48.4383 42.7851C48.7441 42.4819 48.9159 42.0706 48.9159 41.6418V14.1558H6.52215C5.37706 14.1573 4.25196 13.8583 3.26109 13.2892ZM3.26109 7.68847C3.26109 8.54609 3.60466 9.36858 4.21623 9.97501C4.8278 10.5814 5.65726 10.9221 6.52215 10.9221H45.6548V4.45481H6.52215C5.65726 4.45481 4.8278 4.7955 4.21623 5.40193C3.60466 6.00836 3.26109 6.83085 3.26109 7.68847Z" fill="#23A6F0"/>
</g>
<defs>
<clipPath id="clip0_1579_2338">
<rect width="55.2462" height="45.4969" fill="white" transform="translate(3.05176e-05 0.453857)"/>
</clipPath>
</defs>
</svg>
