<svg width="38" height="32" viewBox="0 0 38 32" fill="none" xmlns="http://www.w3.org/2000/svg">
<g id="icn resize icn-md" clip-path="url(#clip0_1579_2329)">
<path id="Vector" fill-rule="evenodd" clip-rule="evenodd" d="M35.8687 30.6654C35.8687 30.6654 38.2346 30.6654 38.2346 28.2782C38.2346 25.891 35.8687 18.7295 26.4053 18.7295C16.9418 18.7295 14.576 25.891 14.576 28.2782C14.576 30.6654 16.9418 30.6654 16.9418 30.6654H35.8687ZM16.9939 28.2782H35.8167C35.8278 28.2769 35.8388 28.2753 35.8498 28.2734L35.8687 28.2687C35.864 27.6384 35.4736 25.8099 34.0707 24.1627C32.7647 22.6182 30.4698 21.1167 26.4053 21.1167C22.3431 21.1167 20.0482 22.6206 18.7399 24.1627C17.3369 25.8099 16.9442 27.6408 16.9418 28.2687C16.9591 28.272 16.9765 28.2752 16.9939 28.2782ZM26.4053 13.9551C27.6602 13.9551 28.8638 13.4521 29.7511 12.5567C30.6385 11.6614 31.137 10.447 31.137 9.18076C31.137 7.91453 30.6385 6.70015 29.7511 5.80478C28.8638 4.90942 27.6602 4.40641 26.4053 4.40641C25.1504 4.40641 23.9468 4.90942 23.0594 5.80478C22.1721 6.70015 21.6736 7.91453 21.6736 9.18076C21.6736 10.447 22.1721 11.6614 23.0594 12.5567C23.9468 13.4521 25.1504 13.9551 26.4053 13.9551ZM33.5029 9.18076C33.5029 10.1212 33.3193 11.0525 32.9626 11.9214C32.6059 12.7902 32.0831 13.5797 31.424 14.2447C30.765 14.9097 29.9825 15.4373 29.1214 15.7972C28.2603 16.1571 27.3374 16.3423 26.4053 16.3423C25.4732 16.3423 24.5503 16.1571 23.6892 15.7972C22.828 15.4373 22.0456 14.9097 21.3865 14.2447C20.7275 13.5797 20.2046 12.7902 19.848 11.9214C19.4913 11.0525 19.3077 10.1212 19.3077 9.18076C19.3077 7.28141 20.0555 5.45984 21.3865 4.11679C22.7176 2.77374 24.5229 2.01923 26.4053 2.01923C28.2877 2.01923 30.093 2.77374 31.424 4.11679C32.7551 5.45984 33.5029 7.28141 33.5029 9.18076ZM16.7904 19.3979C15.844 19.0972 14.8685 18.8995 13.8804 18.8083C13.3252 18.755 12.7678 18.7287 12.2101 18.7295C2.74663 18.7295 0.380768 25.891 0.380768 28.2782C0.380768 29.8704 1.1686 30.6654 2.74663 30.6654H12.7211C12.3704 29.9201 12.1955 29.1031 12.2101 28.2782C12.2101 25.8671 13.102 23.4036 14.7889 21.3458C15.3638 20.644 16.0333 19.9875 16.7904 19.3979ZM12.0208 21.1167C8.07456 21.1644 5.83409 22.6445 4.54469 24.1627C3.13227 25.8194 2.74663 27.6551 2.74663 28.2782H9.84423C9.84423 25.7836 10.6084 23.2985 12.0208 21.1167ZM3.92957 10.3744C3.92957 8.475 4.67735 6.65343 6.0084 5.31038C7.33946 3.96733 9.14476 3.21282 11.0272 3.21282C12.9096 3.21282 14.7149 3.96733 16.0459 5.31038C17.377 6.65343 18.1248 8.475 18.1248 10.3744C18.1248 12.2737 17.377 14.0953 16.0459 15.4383C14.7149 16.7814 12.9096 17.5359 11.0272 17.5359C9.14476 17.5359 7.33946 16.7814 6.0084 15.4383C4.67735 14.0953 3.92957 12.2737 3.92957 10.3744ZM11.0272 5.6C9.77223 5.6 8.56869 6.10301 7.68132 6.99837C6.79395 7.89374 6.29543 9.10812 6.29543 10.3744C6.29543 11.6406 6.79395 12.855 7.68132 13.7503C8.56869 14.6457 9.77223 15.1487 11.0272 15.1487C12.2821 15.1487 13.4856 14.6457 14.373 13.7503C15.2604 12.855 15.7589 11.6406 15.7589 10.3744C15.7589 9.10812 15.2604 7.89374 14.373 6.99837C13.4856 6.10301 12.2821 5.6 11.0272 5.6Z" fill="white"/>
</g>
<defs>
<clipPath id="clip0_1579_2329">
<rect width="36.8308" height="30.3313" fill="white" transform="translate(0.636536 0.996155)"/>
</clipPath>
</defs>
</svg>
