<svg width="38" height="32" viewBox="0 0 38 32" fill="none" xmlns="http://www.w3.org/2000/svg">
<g id="icn resize icn-md" clip-path="url(#clip0_1579_2317)">
<path id="Vector" fill-rule="evenodd" clip-rule="evenodd" d="M35.7091 30.6654C35.7091 30.6654 38.075 30.6654 38.075 28.2782C38.075 25.891 35.7091 18.7295 26.2457 18.7295C16.7822 18.7295 14.4163 25.891 14.4163 28.2782C14.4163 30.6654 16.7822 30.6654 16.7822 30.6654H35.7091ZM16.8343 28.2782H35.6571C35.6682 28.2769 35.6792 28.2753 35.6902 28.2734L35.7091 28.2687C35.7044 27.6384 35.314 25.8099 33.9111 24.1627C32.6051 22.6182 30.3102 21.1167 26.2457 21.1167C22.1835 21.1167 19.8886 22.6206 18.5803 24.1627C17.1773 25.8099 16.7846 27.6408 16.7822 28.2687C16.7995 28.272 16.8169 28.2752 16.8343 28.2782ZM26.2457 13.9551C27.5006 13.9551 28.7041 13.4521 29.5915 12.5567C30.4789 11.6614 30.9774 10.447 30.9774 9.18076C30.9774 7.91453 30.4789 6.70015 29.5915 5.80478C28.7041 4.90942 27.5006 4.40641 26.2457 4.40641C24.9907 4.40641 23.7872 4.90942 22.8998 5.80478C22.0125 6.70015 21.5139 7.91453 21.5139 9.18076C21.5139 10.447 22.0125 11.6614 22.8998 12.5567C23.7872 13.4521 24.9907 13.9551 26.2457 13.9551ZM33.3433 9.18076C33.3433 10.1212 33.1597 11.0525 32.803 11.9214C32.4463 12.7902 31.9235 13.5797 31.2644 14.2447C30.6053 14.9097 29.8229 15.4373 28.9618 15.7972C28.1007 16.1571 27.1777 16.3423 26.2457 16.3423C25.3136 16.3423 24.3907 16.1571 23.5295 15.7972C22.6684 15.4373 21.886 14.9097 21.2269 14.2447C20.5678 13.5797 20.045 12.7902 19.6883 11.9214C19.3317 11.0525 19.1481 10.1212 19.1481 9.18076C19.1481 7.28141 19.8958 5.45984 21.2269 4.11679C22.558 2.77374 24.3633 2.01923 26.2457 2.01923C28.1281 2.01923 29.9334 2.77374 31.2644 4.11679C32.5955 5.45984 33.3433 7.28141 33.3433 9.18076ZM16.6308 19.3979C15.6844 19.0972 14.7088 18.8995 13.7208 18.8083C13.1656 18.755 12.6082 18.7287 12.0505 18.7295C2.58701 18.7295 0.221146 25.891 0.221146 28.2782C0.221146 29.8704 1.00898 30.6654 2.58701 30.6654H12.5615C12.2108 29.9201 12.0359 29.1031 12.0505 28.2782C12.0505 25.8671 12.9424 23.4036 14.6293 21.3458C15.2042 20.644 15.8737 19.9875 16.6308 19.3979ZM11.8612 21.1167C7.91494 21.1644 5.67447 22.6445 4.38507 24.1627C2.97265 25.8194 2.58701 27.6551 2.58701 28.2782H9.68461C9.68461 25.7836 10.4488 23.2985 11.8612 21.1167ZM3.76994 10.3744C3.76994 8.475 4.51772 6.65343 5.84878 5.31038C7.17984 3.96733 8.98514 3.21282 10.8675 3.21282C12.7499 3.21282 14.5552 3.96733 15.8863 5.31038C17.2174 6.65343 17.9651 8.475 17.9651 10.3744C17.9651 12.2737 17.2174 14.0953 15.8863 15.4383C14.5552 16.7814 12.7499 17.5359 10.8675 17.5359C8.98514 17.5359 7.17984 16.7814 5.84878 15.4383C4.51772 14.0953 3.76994 12.2737 3.76994 10.3744ZM10.8675 5.6C9.61261 5.6 8.40907 6.10301 7.5217 6.99837C6.63433 7.89374 6.13581 9.10812 6.13581 10.3744C6.13581 11.6406 6.63433 12.855 7.5217 13.7503C8.40907 14.6457 9.61261 15.1487 10.8675 15.1487C12.1225 15.1487 13.326 14.6457 14.2134 13.7503C15.1007 12.855 15.5993 11.6406 15.5993 10.3744C15.5993 9.10812 15.1007 7.89374 14.2134 6.99837C13.326 6.10301 12.1225 5.6 10.8675 5.6Z" fill="#23A6F0"/>
</g>
<defs>
<clipPath id="clip0_1579_2317">
<rect width="36.8308" height="30.3313" fill="white" transform="translate(0.476929 0.996155)"/>
</clipPath>
</defs>
</svg>
